<svg width="133" height="42" viewBox="0 0 133 42" fill="none" xmlns="http://www.w3.org/2000/svg">
<path opacity="0.5" d="M40.0652 2.25671L30.2601 36.9917C30.2102 37.1494 30.0108 37.1967 29.8945 37.0863L23.3301 30.8583L28.2492 13.4514C28.2991 13.2937 28.1495 13.1518 27.9833 13.1991L9.63617 17.8662L3.10498 11.6697C2.98865 11.5593 3.03851 11.3701 3.20469 11.3228L39.7993 2.00444C39.9655 1.97291 40.115 2.11481 40.0652 2.25671Z" fill="#00B37E"/>
<path opacity="0.5" d="M23.3297 30.858L20.8037 39.8452C20.7538 40.0029 20.5544 40.0502 20.4381 39.9398L0.0634003 20.6251C-0.0529313 20.5147 -0.00307518 20.3255 0.163113 20.2782L9.63583 17.8658L23.3297 30.858Z" fill="#00B37E"/>
<path d="M28.2484 13.4511L23.3292 30.858L9.63533 17.8659L27.9825 13.1988C28.1487 13.1515 28.2982 13.2934 28.2484 13.4511Z" fill="#00B37E"/>
<path d="M61.4377 11.3104V29.5H57.6898V11.3104H61.4377ZM68.6835 19.081V22.0043H60.4133V19.081H68.6835ZM69.558 11.3104V14.2462H60.4133V11.3104H69.558ZM75.3047 15.9828V29.5H71.6943V15.9828H75.3047ZM71.4694 12.4598C71.4694 11.9351 71.6526 11.502 72.0191 11.1605C72.3856 10.819 72.8769 10.6483 73.4933 10.6483C74.1012 10.6483 74.5885 10.819 74.9549 11.1605C75.3297 11.502 75.5171 11.9351 75.5171 12.4598C75.5171 12.9845 75.3297 13.4176 74.9549 13.759C74.5885 14.1005 74.1012 14.2712 73.4933 14.2712C72.8769 14.2712 72.3856 14.1005 72.0191 13.759C71.6526 13.4176 71.4694 12.9845 71.4694 12.4598ZM81.801 18.8686V29.5H78.2031V15.9828H81.5761L81.801 18.8686ZM81.2763 22.2666H80.3018C80.3018 21.2672 80.4309 20.3677 80.6891 19.5682C80.9473 18.7603 81.3096 18.0732 81.776 17.5069C82.2424 16.9322 82.7963 16.495 83.4376 16.1951C84.0872 15.887 84.8118 15.7329 85.6113 15.7329C86.2443 15.7329 86.8231 15.8245 87.3478 16.0077C87.8725 16.191 88.3222 16.4825 88.697 16.8822C89.0801 17.282 89.3716 17.8109 89.5715 18.4688C89.7797 19.1268 89.8839 19.9305 89.8839 20.8799V29.5H86.2609V20.8675C86.2609 20.2678 86.1776 19.8014 86.0111 19.4683C85.8445 19.1351 85.5988 18.9019 85.274 18.7687C84.9575 18.6271 84.5661 18.5563 84.0997 18.5563C83.6166 18.5563 83.196 18.6521 82.8379 18.8436C82.4881 19.0352 82.1966 19.3017 81.9634 19.6432C81.7385 19.9763 81.5678 20.3677 81.4512 20.8175C81.3346 21.2672 81.2763 21.7503 81.2763 22.2666Z" fill="#E1E1E6"/>
<path d="M98.8412 29.7499C97.7918 29.7499 96.8507 29.5833 96.0178 29.2501C95.185 28.9087 94.4771 28.4381 93.8941 27.8385C93.3194 27.2388 92.878 26.5434 92.5698 25.7521C92.2617 24.9526 92.1076 24.1031 92.1076 23.2036V22.7039C92.1076 21.6795 92.2533 20.7425 92.5448 19.893C92.8363 19.0435 93.2528 18.3064 93.7941 17.6818C94.3438 17.0571 95.0101 16.5782 95.793 16.2451C96.5759 15.9036 97.4587 15.7329 98.4414 15.7329C99.3992 15.7329 100.249 15.8911 100.99 16.2076C101.731 16.5241 102.352 16.9739 102.851 17.5569C103.359 18.1398 103.743 18.8394 104.001 19.6556C104.259 20.4635 104.388 21.363 104.388 22.3541V23.8532H93.6442V21.4546H100.853V21.1798C100.853 20.6801 100.761 20.2345 100.578 19.843C100.403 19.4433 100.136 19.1268 99.7782 18.8936C99.4201 18.6604 98.962 18.5438 98.404 18.5438C97.9292 18.5438 97.5211 18.6479 97.1797 18.8561C96.8382 19.0643 96.5592 19.3558 96.3427 19.7306C96.1344 20.1054 95.9762 20.5468 95.8679 21.0548C95.768 21.5546 95.718 22.1042 95.718 22.7039V23.2036C95.718 23.745 95.793 24.2447 95.9429 24.7028C96.1011 25.1608 96.3218 25.5564 96.605 25.8896C96.8965 26.2227 97.2463 26.4809 97.6544 26.6641C98.0708 26.8474 98.5414 26.939 99.0661 26.939C99.7157 26.939 100.32 26.814 100.878 26.5642C101.444 26.306 101.931 25.9187 102.339 25.4024L104.088 27.3013C103.805 27.7094 103.418 28.1008 102.926 28.4756C102.443 28.8504 101.86 29.1585 101.177 29.4001C100.494 29.6333 99.7157 29.7499 98.8412 29.7499ZM117.193 26.6891V29.5H106.924V26.6891H117.193ZM116.993 18.0566L108.373 29.5H105.962V27.3637L114.545 15.9828H116.993V18.0566ZM115.719 15.9828V18.8061H106.162V15.9828H115.719ZM125.476 29.7499C124.427 29.7499 123.485 29.5833 122.653 29.2501C121.82 28.9087 121.112 28.4381 120.529 27.8385C119.954 27.2388 119.513 26.5434 119.205 25.7521C118.896 24.9526 118.742 24.1031 118.742 23.2036V22.7039C118.742 21.6795 118.888 20.7425 119.18 19.893C119.471 19.0435 119.887 18.3064 120.429 17.6818C120.979 17.0571 121.645 16.5782 122.428 16.2451C123.211 15.9036 124.093 15.7329 125.076 15.7329C126.034 15.7329 126.883 15.8911 127.625 16.2076C128.366 16.5241 128.986 16.9739 129.486 17.5569C129.994 18.1398 130.377 18.8394 130.635 19.6556C130.894 20.4635 131.023 21.363 131.023 22.3541V23.8532H120.279V21.4546H127.487V21.1798C127.487 20.6801 127.396 20.2345 127.212 19.843C127.038 19.4433 126.771 19.1268 126.413 18.8936C126.055 18.6604 125.597 18.5438 125.039 18.5438C124.564 18.5438 124.156 18.6479 123.814 18.8561C123.473 19.0643 123.194 19.3558 122.977 19.7306C122.769 20.1054 122.611 20.5468 122.503 21.0548C122.403 21.5546 122.353 22.1042 122.353 22.7039V23.2036C122.353 23.745 122.428 24.2447 122.578 24.7028C122.736 25.1608 122.957 25.5564 123.24 25.8896C123.531 26.2227 123.881 26.4809 124.289 26.6641C124.706 26.8474 125.176 26.939 125.701 26.939C126.35 26.939 126.954 26.814 127.512 26.5642C128.079 26.306 128.566 25.9187 128.974 25.4024L130.723 27.3013C130.44 27.7094 130.052 28.1008 129.561 28.4756C129.078 28.8504 128.495 29.1585 127.812 29.4001C127.129 29.6333 126.35 29.7499 125.476 29.7499Z" fill="#00B37E"/>
</svg>
